# xmcd CD database file
#
# Track frame offsets:
#	150
#	10781
#	42255
#	56874
#	79621
#	93828
#	107395
#	114015
#	137819
#	147817
#	157157
#	168126
#	184832
#	198954
#	211519
#	222538
#	237995
#
# Disc length: 3484 seconds
#
# Revision: 0
# Processed by: cddbd v1.5PL3 Copyright (c) Steve Scherf et al.
# Submitted via: CDex 1.51
#
DISCID=dc0d9a11
DTITLE=Lightnin' Hopkins - Blues
DYEAR=2002
DGENRE=Blues
TTITLE0=Nothin' But The Blues
TTITLE1=Big Black Cadillac Blues
TTITLE2=Santa Fe Blues
TTITLE3=Drinkin' In The Blues
TTITLE4=G-String Blues
TTITLE5=Stool Pigeon Blues
TTITLE6=BlueBird BlueBird
TTITLE7=Early In The Mornin' Blues
TTITLE8=Sick Feelin' Blues
TTITLE9=Coffee House Blues
TTITLE10=Blues For My Cookie
TTITLE11=Fugitive Blues
TTITLE12=Rainy Day Blues
TTITLE13=Backwater Blues
TTITLE14=Blues Is A Mighty Bad Feeling
TTITLE15=Prison Blues Come Down On Me
TTITLE16=Nothin' But The Blues
EXTD=YEAR: 2002
EXTT0=
EXTT1=
EXTT2=
EXTT3=
EXTT4=
EXTT5=
EXTT6=
EXTT7=
EXTT8=
EXTT9=
EXTT10=
EXTT11=
EXTT12=
EXTT13=
EXTT14=
EXTT15=
EXTT16=
PLAYORDER=
